<svg width="32" height="33" viewBox="0 0 32 33" fill="none" xmlns="http://www.w3.org/2000/svg">
<path d="M5.33329 27.5C4.59996 27.5 3.9724 27.231 3.45063 26.6929C2.92885 26.1548 2.66751 25.5072 2.66663 24.75V8.25C2.66663 7.49375 2.92796 6.84658 3.45063 6.3085C3.97329 5.77042 4.60085 5.50092 5.33329 5.5H26.6666C27.4 5.5 28.028 5.7695 28.5506 6.3085C29.0733 6.8475 29.3342 7.49467 29.3333 8.25V24.75C29.3333 25.5063 29.0724 26.1539 28.5506 26.6929C28.0288 27.2319 27.4008 27.5009 26.6666 27.5H5.33329ZM16 17.875L26.6666 11V8.25L16 15.125L5.33329 8.25V11L16 17.875Z" fill="#567BFF"/>
</svg>
