<svg width="35" height="33" viewBox="0 0 35 33" fill="none" xmlns="http://www.w3.org/2000/svg">
<path d="M17.5 23.375C18.2736 23.375 19.0155 23.0853 19.5624 22.5695C20.1094 22.0538 20.4167 21.3543 20.4167 20.625C20.4167 19.8957 20.1094 19.1962 19.5624 18.6805C19.0155 18.1647 18.2736 17.875 17.5 17.875C16.7265 17.875 15.9846 18.1647 15.4376 18.6805C14.8907 19.1962 14.5834 19.8957 14.5834 20.625C14.5834 21.3543 14.8907 22.0538 15.4376 22.5695C15.9846 23.0853 16.7265 23.375 17.5 23.375ZM26.25 11C27.0236 11 27.7655 11.2897 28.3124 11.8055C28.8594 12.3212 29.1667 13.0207 29.1667 13.75V27.5C29.1667 28.2293 28.8594 28.9288 28.3124 29.4445C27.7655 29.9603 27.0236 30.25 26.25 30.25H8.75004C7.97649 30.25 7.23463 29.9603 6.68765 29.4445C6.14066 28.9288 5.83337 28.2293 5.83337 27.5V13.75C5.83337 13.0207 6.14066 12.3212 6.68765 11.8055C7.23463 11.2897 7.97649 11 8.75004 11H10.2084V8.25C10.2084 6.42664 10.9766 4.67795 12.3441 3.38864C13.7115 2.09933 15.5662 1.375 17.5 1.375C18.4576 1.375 19.4058 1.55283 20.2904 1.89833C21.1751 2.24383 21.9789 2.75024 22.656 3.38864C23.3331 4.02704 23.8702 4.78494 24.2367 5.61905C24.6031 6.45316 24.7917 7.34716 24.7917 8.25V11H26.25ZM17.5 4.125C16.3397 4.125 15.2269 4.5596 14.4064 5.33318C13.586 6.10677 13.125 7.15598 13.125 8.25V11H21.875V8.25C21.875 7.15598 21.4141 6.10677 20.5936 5.33318C19.7732 4.5596 18.6604 4.125 17.5 4.125Z" fill="#567BFF"/>
</svg>
